<svg width="18" height="21" viewBox="0 0 18 21" fill="none" xmlns="http://www.w3.org/2000/svg">
<path d="M1.59857 12.5363L9.09889 3.81879C10.5403 2.14351 13.0646 1.95405 14.7399 3.39542C16.4152 4.83678 16.6046 7.36113 15.1633 9.03641L7.01074 18.512C6.1107 19.5581 4.53122 19.6766 3.48512 18.7766C2.43901 17.8765 2.32047 16.2971 3.22051 15.251L10.0686 7.29149C10.4273 6.87456 11.0619 6.82693 11.4789 7.18565C11.8958 7.54436 11.9434 8.17897 11.5847 8.59589L5.3888 15.7973L6.52587 16.7756L12.7218 9.5742C13.6218 8.52809 13.5033 6.94862 12.4572 6.04858C11.4111 5.14854 9.8316 5.26708 8.93156 6.31319L2.08344 14.2727C0.642074 15.9479 0.831535 18.4723 2.50682 19.9137C4.1821 21.355 6.70644 21.1656 8.1478 19.4903L16.3003 10.0147C18.283 7.71025 18.0226 4.24104 15.7182 2.25835C13.4137 0.275657 9.94452 0.536032 7.96182 2.84049L0.461505 11.558L1.59857 12.5363Z" fill="black"/>
</svg>
